<svg xmlns="http://www.w3.org/2000/svg" width="12" height="14" fill="none"><path fill="#E5E5E5" d="M0 0h12v14H0z"/><g clip-path="url(#a)"><path fill="#fff" d="M-1191-29H89v1903h-1280z"/><path fill="#fff" d="M-1191-29H89v74h-1280z"/><rect width="26" height="30" x="-7" y="-8" fill="#F9F9F9" rx="4"/><path fill="#000" fill-rule="evenodd" d="M8.5 4a2.5 2.5 0 1 1-5 0 2.5 2.5 0 0 1 5 0ZM10 4a4 4 0 1 1-8 0 4 4 0 0 1 8 0ZM4 9.3C2 9.3.2 10.8.2 13v1h1.6v-1c0-1.2 1-2.3 2.2-2.3h4c1.2 0 2.3 1 2.3 2.3v1h1.4v-1c0-2-1.6-3.8-3.7-3.8H4Z" clip-rule="evenodd"/></g><defs><clipPath id="a"><path fill="#fff" d="M-1191-29H89v1903h-1280z"/></clipPath></defs></svg>