<svg xmlns="http://www.w3.org/2000/svg" width="38" height="38" fill="none"><path fill="#2BE080" d="M0 12.7C0 8.2 0 6 .9 4.3A8 8 0 0 1 4.3 1C6 0 8.3 0 12.7 0h12.6c4.5 0 6.7 0 8.4.9A8 8 0 0 1 37 4.3c.9 1.7.9 4 .9 8.4v12.6c0 4.5 0 6.7-.9 8.4a8 8 0 0 1-3.4 3.4c-1.7.9-4 .9-8.4.9H12.7c-4.5 0-6.7 0-8.4-.9A8 8 0 0 1 1 33.7C0 32 0 29.7 0 25.3V12.7Z"/><circle cx="19" cy="19" r="11" fill="#fff"/><path fill="#2BE080" fill-rule="evenodd" d="M15.2 19a3.8 3.8 0 1 0 7.6 0H25a6 6 0 0 1-12 0h2.2Z" clip-rule="evenodd"/></svg>